<?xml version="1.0" encoding="UTF-8" standalone="no"?>
<svg
   xmlns:dc="http://purl.org/dc/elements/1.1/"
   xmlns:cc="http://creativecommons.org/ns#"
   xmlns:rdf="http://www.w3.org/1999/02/22-rdf-syntax-ns#"
   xmlns:svg="http://www.w3.org/2000/svg"
   xmlns="http://www.w3.org/2000/svg"
   id="svg19"
   version="1.1"
   viewBox="0 0 139 139"
   height="139px"
   width="139px">
  <metadata
     id="metadata23">
    <rdf:RDF>
      <cc:Work
         rdf:about="">
        <dc:format>image/svg+xml</dc:format>
        <dc:type
           rdf:resource="http://purl.org/dc/dcmitype/StillImage" />
      </cc:Work>
    </rdf:RDF>
  </metadata>
  <!-- Generator: Sketch 41.2 (35397) - http://www.bohemiancoding.com/sketch -->
  <title
     id="title2">play-button</title>
  <desc
     id="desc4">Created with Sketch.</desc>
  <defs
     id="defs6" />
  <g
     fill-rule="evenodd"
     fill="none"
     stroke-width="1"
     stroke="none"
     id="Page-1">
    <g
       fill="#FFFFFF"
       transform="translate(-828.000000, -246.000000)"
       id="Homepage">
      <g
         transform="translate(0.000000, -1.000000)"
         id="header">
        <g
           transform="translate(360.000000, 0.000000)"
           id="video-bg">
          <g
             transform="translate(360.000000, 247.000000)"
             id="play-buutton-text">
            <g
               id="Group-6">
              <g
                 transform="translate(108.000000, 0.000000)"
                 id="play-button">
                <path
                   id="Fill-1"
                   d="M135.758304,69.3968551 C135.758304,32.7411307 106.047668,3.02558304 69.3919435,3.02558304 C32.7362191,3.02558304 3.02067138,32.7411307 3.02067138,69.3968551 C3.02067138,106.047668 32.7362191,135.763216 69.3919435,135.763216 C106.047668,135.763216 135.758304,106.047668 135.758304,69.3968551 M69.3919435,0.122791519 C107.585018,0.122791519 138.661095,31.1988693 138.661095,69.3968551 C138.661095,107.589929 107.585018,138.666007 69.3919435,138.666007 C31.1939576,138.666007 0.122791519,107.589929 0.122791519,69.3968551 C0.122791519,31.1988693 31.1939576,0.122791519 69.3919435,0.122791519" />
                <path
                   id="Fill-3"
                   d="M132.860424,69.3968551 C132.860424,34.3963604 104.387527,5.92837456 69.3919435,5.92837456 C34.3963604,5.92837456 5.9234629,34.3963604 5.9234629,69.3968551 C5.9234629,104.392438 34.3963604,132.865336 69.3919435,132.865336 C104.387527,132.865336 132.860424,104.392438 132.860424,69.3968551 M69.3919435,3.02558304 C106.047668,3.02558304 135.758304,32.7411307 135.758304,69.3968551 C135.758304,106.047668 106.047668,135.763216 69.3919435,135.763216 C32.7362191,135.763216 3.02067138,106.047668 3.02067138,69.3968551 C3.02067138,32.7411307 32.7362191,3.02558304 69.3919435,3.02558304" />
                <path
                   id="Fill-5"
                   d="M51.3366784,96.5436042 L94.3284452,69.3968551 L51.3366784,42.2451943 L51.3366784,96.5436042 Z M100.698869,69.3968551 L49.3720141,101.808905 L49.3720141,36.979894 L100.698869,69.3968551 Z" />
                <path
                   id="Fill-7"
                   d="M54.774841,91.2832155 L89.4364311,69.3968551 L54.774841,47.505583 L54.774841,91.2832155 Z M94.3284452,69.3968551 L51.3366784,96.5436042 L51.3366784,42.2451943 L94.3284452,69.3968551 Z" />
              </g>
            </g>
          </g>
        </g>
      </g>
    </g>
  </g>
</svg>
